<svg xmlns="http://www.w3.org/2000/svg" viewBox="0 0 396 113.78"><path d="M81.77,68.45a.94.94,0,0,1-.3-.71V46.42a1,1,0,0,1,.3-.7,1,1,0,0,1,.72-.31H99.92a1,1,0,0,1,.7.31,1,1,0,0,1,.31.7v1.89a.91.91,0,0,0,.3.68,1,1,0,0,0,.72.3h1.85a1,1,0,0,1,.7.31,1,1,0,0,1,.32.7v1.87a.93.93,0,0,1-.32.69,1,1,0,0,1-.7.32H102a1,1,0,0,0-.72.3.94.94,0,0,0-.3.68v1.91a1,1,0,0,0,.3.71,1,1,0,0,0,.72.32h1.85a1,1,0,0,1,.7.29,1,1,0,0,1,.32.72v5.74a1,1,0,0,1-.32.72,1,1,0,0,1-.7.3H102a1,1,0,0,0-.72.29,1,1,0,0,0-.3.72v1.86a.92.92,0,0,1-.31.71,1,1,0,0,1-.7.3H82.49A1,1,0,0,1,81.77,68.45ZM96,53.18a1,1,0,0,0,.7-.32.93.93,0,0,0,.32-.69V50.3a1,1,0,0,0-.32-.7,1,1,0,0,0-.7-.31H90.26a1,1,0,0,0-.7.31,1,1,0,0,0-.32.7v1.87a.93.93,0,0,0,.32.69,1,1,0,0,0,.7.32Zm0,11.69a1,1,0,0,0,.7-.3,1,1,0,0,0,.32-.72V58.11a1,1,0,0,0-.32-.72,1,1,0,0,0-.7-.29H90.26a1,1,0,0,0-.7.29,1,1,0,0,0-.32.72v5.74a1,1,0,0,0,.32.72,1,1,0,0,0,.7.3Z" style="fill:#f1f2f2"/><path d="M110.19,68.5a.85.85,0,0,1-.26-.62V46.28a.86.86,0,0,1,.26-.6.8.8,0,0,1,.61-.27h4.92a.83.83,0,0,1,.62.27.85.85,0,0,1,.25.6v21.6a.85.85,0,0,1-.87.87H110.8A.82.82,0,0,1,110.19,68.5Z" style="fill:#f1f2f2"/><path d="M126.25,68.5a.83.83,0,0,1-.27-.62V66.29a.82.82,0,0,0-.25-.61.85.85,0,0,0-.62-.26h-1.59a.82.82,0,0,1-.61-.25.85.85,0,0,1-.26-.62V52.94a.86.86,0,0,1,.26-.6.8.8,0,0,1,.61-.27h4.92a.83.83,0,0,1,.62.27.85.85,0,0,1,.25.6V64.55a.83.83,0,0,0,.27.62.85.85,0,0,0,.6.25h4.95a.85.85,0,0,0,.6-.25.83.83,0,0,0,.27-.62V52.94a.86.86,0,0,1,.26-.6.77.77,0,0,1,.58-.27h4.95a.93.93,0,0,1,.87.87V64.55a.83.83,0,0,1-.27.62.85.85,0,0,1-.6.25H140.2a.89.89,0,0,0-.87.87v1.59a.83.83,0,0,1-.27.62.85.85,0,0,1-.6.25H126.85A.85.85,0,0,1,126.25,68.5Z" style="fill:#f1f2f2"/><path d="M152.32,68.5a.83.83,0,0,1-.27-.62V66.29a.82.82,0,0,0-.25-.61.85.85,0,0,0-.62-.26h-1.59a.82.82,0,0,1-.61-.25.85.85,0,0,1-.26-.62V56.24a.8.8,0,0,1,.26-.58.83.83,0,0,1,.61-.26h1.59a.83.83,0,0,0,.62-.27.81.81,0,0,0,.25-.59V52.93a.93.93,0,0,1,.87-.86h11.61a.93.93,0,0,1,.87.86v1.61a.82.82,0,0,0,.26.59.8.8,0,0,0,.61.27h1.59a.86.86,0,0,1,.6.26.77.77,0,0,1,.27.58v5a.93.93,0,0,1-.87.87H156.25a.86.86,0,0,0-.6.26.8.8,0,0,0-.27.61v1.59a.83.83,0,0,0,.27.62.85.85,0,0,0,.6.25h8.28a.86.86,0,0,1,.6.26.8.8,0,0,1,.27.61v1.59a.83.83,0,0,1-.27.62.85.85,0,0,1-.6.25H152.92A.85.85,0,0,1,152.32,68.5Zm8.88-9.74a.93.93,0,0,0,.87-.88V56.25a.79.79,0,0,0-.27-.59.86.86,0,0,0-.6-.26h-4.95a.86.86,0,0,0-.6.26.79.79,0,0,0-.27.59v1.63a.93.93,0,0,0,.87.88Z" style="fill:#f1f2f2"/><path d="M175.64,68.45a1,1,0,0,1-.29-.71V46.42a1,1,0,0,1,.29-.7,1,1,0,0,1,.72-.31h17.43a1,1,0,0,1,.7.31,1,1,0,0,1,.32.7v1.89a.94.94,0,0,0,.29.68,1,1,0,0,0,.72.3h1.86a1,1,0,0,1,.7.32.94.94,0,0,1,.31.69v5.75a1,1,0,0,1-.31.7,1,1,0,0,1-.7.31l-1.86,0a1,1,0,0,0-1,1V60a1,1,0,0,1-.32.7,1,1,0,0,1-.7.31h-9.66a1,1,0,0,0-.7.3,1,1,0,0,0-.31.72v5.74a.94.94,0,0,1-.3.71,1,1,0,0,1-.72.3h-5.74A1,1,0,0,1,175.64,68.45Zm14.27-11.39a1,1,0,0,0,.7-.31,1,1,0,0,0,.31-.7V50.3a.94.94,0,0,0-.31-.69,1,1,0,0,0-.7-.32h-5.78a1,1,0,0,0-.7.32.94.94,0,0,0-.31.69v5.75a1,1,0,0,0,.31.7,1,1,0,0,0,.7.31Z" style="fill:#f1f2f2"/><path d="M204.06,48.49a.84.84,0,0,1-.25-.62V46.28a.85.85,0,0,1,.25-.6.83.83,0,0,1,.62-.27h4.92a.8.8,0,0,1,.61.27.86.86,0,0,1,.26.6v1.59a.85.85,0,0,1-.26.62.82.82,0,0,1-.61.25h-4.92A.84.84,0,0,1,204.06,48.49Zm0,20a.84.84,0,0,1-.25-.62V52.94a.85.85,0,0,1,.25-.6.83.83,0,0,1,.62-.27h4.92a.8.8,0,0,1,.61.27.86.86,0,0,1,.26.6V67.88a.85.85,0,0,1-.26.62.82.82,0,0,1-.61.25h-4.92A.84.84,0,0,1,204.06,68.5Z" style="fill:#f1f2f2"/><path d="M216.78,68.5a.84.84,0,0,1-.25-.62V66.29a.82.82,0,0,1,.25-.61.85.85,0,0,1,.62-.26H219a.82.82,0,0,0,.61-.25.85.85,0,0,0,.26-.62V63a.8.8,0,0,1,.27-.61.86.86,0,0,1,.6-.26h1.59a.8.8,0,0,0,.61-.27.86.86,0,0,0,.26-.6v-1.6a.89.89,0,0,0-.87-.87h-1.59a.93.93,0,0,1-.87-.87V56.24a.8.8,0,0,0-.26-.58.83.83,0,0,0-.61-.26H217.4a.83.83,0,0,1-.62-.27.81.81,0,0,1-.25-.59V52.93a.84.84,0,0,1,.25-.59.83.83,0,0,1,.62-.27h8.28a.77.77,0,0,1,.58.27.86.86,0,0,1,.26.6v5a.93.93,0,0,0,.87.87H229a.93.93,0,0,0,.87-.87v-5a.85.85,0,0,1,.25-.6.79.79,0,0,1,.59-.27h4.95a.93.93,0,0,1,.87.86v1.61a.79.79,0,0,1-.27.59.83.83,0,0,1-.6.27h-1.59a.85.85,0,0,0-.62.26.79.79,0,0,0-.25.58v1.63a.93.93,0,0,1-.87.87h-1.62a.87.87,0,0,0-.84.87v1.6a.85.85,0,0,0,.25.6.79.79,0,0,0,.59.27h1.62a.86.86,0,0,1,.6.26.8.8,0,0,1,.27.61v1.6a.85.85,0,0,0,.87.87h1.59a.86.86,0,0,1,.6.26.8.8,0,0,1,.27.61v1.59a.83.83,0,0,1-.27.62.85.85,0,0,1-.6.25h-8.28a.85.85,0,0,1-.6-.25.83.83,0,0,1-.27-.62V63a.83.83,0,0,0-.26-.61.8.8,0,0,0-.58-.26h-1.62a.86.86,0,0,0-.6.26.8.8,0,0,0-.27.61v4.92a.85.85,0,0,1-.26.62.82.82,0,0,1-.61.25H217.4A.84.84,0,0,1,216.78,68.5Z" style="fill:#f1f2f2"/><path d="M246.2,68.5a.83.83,0,0,1-.27-.62V66.29a.89.89,0,0,0-.87-.87h-1.59a.85.85,0,0,1-.87-.87V56.24a.79.79,0,0,1,.25-.58.85.85,0,0,1,.62-.26h1.59a.8.8,0,0,0,.61-.27.82.82,0,0,0,.26-.59V52.93a.93.93,0,0,1,.87-.86h11.61a.93.93,0,0,1,.87.86v1.61a.81.81,0,0,0,.25.59.83.83,0,0,0,.62.27h1.59a.86.86,0,0,1,.6.26.77.77,0,0,1,.27.58v5a.93.93,0,0,1-.87.87H250.13a.86.86,0,0,0-.6.26.8.8,0,0,0-.27.61v1.59a.83.83,0,0,0,.27.62.85.85,0,0,0,.6.25h8.28a.86.86,0,0,1,.6.26.8.8,0,0,1,.27.61v1.59a.83.83,0,0,1-.27.62.85.85,0,0,1-.6.25H246.8A.85.85,0,0,1,246.2,68.5Zm8.88-9.74a.93.93,0,0,0,.87-.88V56.25a.79.79,0,0,0-.27-.59.86.86,0,0,0-.6-.26h-5a.86.86,0,0,0-.6.26.79.79,0,0,0-.27.59v1.63a.93.93,0,0,0,.87.88Z" style="fill:#f1f2f2"/><path d="M268.92,68.5a.84.84,0,0,1-.25-.62V46.28a.85.85,0,0,1,.25-.6.83.83,0,0,1,.62-.27h4.92a.8.8,0,0,1,.61.27.86.86,0,0,1,.26.6v21.6a.85.85,0,0,1-.26.62.82.82,0,0,1-.61.25h-4.92A.84.84,0,0,1,268.92,68.5Z" style="fill:#f1f2f2"/><path d="M281.64,68.5a.84.84,0,0,1-.25-.62V63a.82.82,0,0,1,.25-.61.85.85,0,0,1,.62-.26h4.92a.89.89,0,0,1,.87.87v4.92a.85.85,0,0,1-.26.62.82.82,0,0,1-.61.25h-4.92A.84.84,0,0,1,281.64,68.5Z" style="fill:#f1f2f2"/><path d="M297.7,68.5a.85.85,0,0,1-.26-.62V66.29a.89.89,0,0,0-.87-.87H295a.83.83,0,0,1-.62-.25.84.84,0,0,1-.25-.62V56.24a.79.79,0,0,1,.25-.58.84.84,0,0,1,.62-.26h1.59a.8.8,0,0,0,.61-.27.82.82,0,0,0,.26-.59V52.93a.91.91,0,0,1,.87-.86h8.27a.85.85,0,0,0,.61-.25.82.82,0,0,0,.26-.59V46.28a.86.86,0,0,1,.26-.6.77.77,0,0,1,.58-.27h4.95a.87.87,0,0,1,.61.27.82.82,0,0,1,.26.6v21.6a.82.82,0,0,1-.26.62.89.89,0,0,1-.61.25H298.31A.87.87,0,0,1,297.7,68.5Zm8.88-3.08a.87.87,0,0,0,.87-.87V56.24a.8.8,0,0,0-.26-.58.87.87,0,0,0-.61-.26h-4.94a.88.88,0,0,0-.61.26.8.8,0,0,0-.26.58v8.31a.85.85,0,0,0,.26.62.87.87,0,0,0,.61.25Z" style="fill:#f1f2f2"/><path d="M323.78,68.5a.83.83,0,0,1-.27-.62V66.29a.89.89,0,0,0-.87-.87h-1.59a.85.85,0,0,1-.87-.87V56.24a.79.79,0,0,1,.25-.58.85.85,0,0,1,.62-.26h1.59a.8.8,0,0,0,.61-.27.82.82,0,0,0,.26-.59V52.93a.83.83,0,0,1,.27-.59.82.82,0,0,1,.6-.27H336a.87.87,0,0,1,.61.27.83.83,0,0,1,.27.59v1.61a.89.89,0,0,0,.87.86h1.59a.9.9,0,0,1,.6.26.77.77,0,0,1,.27.58v5a.83.83,0,0,1-.27.6.87.87,0,0,1-.6.27H327.71a.84.84,0,0,0-.6.26.8.8,0,0,0-.27.61v1.59a.89.89,0,0,0,.87.87H336a.9.9,0,0,1,.61.26.8.8,0,0,1,.27.61v1.59a.83.83,0,0,1-.27.62.89.89,0,0,1-.61.25h-11.6A.83.83,0,0,1,323.78,68.5Zm8.87-9.74a.93.93,0,0,0,.88-.88V56.25a.79.79,0,0,0-.27-.59.87.87,0,0,0-.61-.26h-4.94a.84.84,0,0,0-.6.26.79.79,0,0,0-.27.59v1.63a.84.84,0,0,0,.27.61.82.82,0,0,0,.6.27Z" style="fill:#f1f2f2"/><path d="M349.87,68.5a.84.84,0,0,1-.28-.62V63a.82.82,0,0,0-.25-.61.85.85,0,0,0-.62-.26h-1.6a.83.83,0,0,1-.62-.27.86.86,0,0,1-.26-.6v-5a.79.79,0,0,0-.25-.58.85.85,0,0,0-.62-.26h-1.59a.8.8,0,0,1-.61-.27.82.82,0,0,1-.26-.59V52.93a.86.86,0,0,1,.26-.59.8.8,0,0,1,.61-.27H352a.81.81,0,0,1,.62.27.85.85,0,0,1,.25.6v8.28a.84.84,0,0,0,.28.6.85.85,0,0,0,.61.27h1.65a.79.79,0,0,0,.59-.27.82.82,0,0,0,.26-.6V52.94a.93.93,0,0,1,.87-.87h4.93a.83.83,0,0,1,.6.27.86.86,0,0,1,.26.59v1.61a.82.82,0,0,1-.26.59.83.83,0,0,1-.6.27h-1.61a.82.82,0,0,0-.59.26.79.79,0,0,0-.25.58v5a.93.93,0,0,1-.87.87h-1.61a.86.86,0,0,0-.6.26.8.8,0,0,0-.27.61v4.92a.84.84,0,0,1-.25.62.81.81,0,0,1-.59.25h-5A.85.85,0,0,1,349.87,68.5Z" style="fill:#f1f2f2"/><path d="M33.46,68.51a.71.71,0,0,1-.41-.61V46.25a.73.73,0,0,1,.41-.6,1.8,1.8,0,0,1,1-.27h8a1.8,1.8,0,0,1,1,.27.75.75,0,0,1,.42.6V67.9a.72.72,0,0,1-.42.61,1.88,1.88,0,0,1-1,.26h-8A1.88,1.88,0,0,1,33.46,68.51Z" style="fill:#f1f2f2"/><path d="M49.15,68.51a.72.72,0,0,1-.42-.61V46.25a.75.75,0,0,1,.42-.6,1.78,1.78,0,0,1,1-.27h8a1.81,1.81,0,0,1,1,.27.75.75,0,0,1,.41.6V67.9a.73.73,0,0,1-.41.61,1.9,1.9,0,0,1-1,.26h-8A1.86,1.86,0,0,1,49.15,68.51Z" style="fill:#f1f2f2"/><path d="M64.83,68.51a.72.72,0,0,1-.42-.61V46.25a.75.75,0,0,1,.42-.6,1.8,1.8,0,0,1,1-.27h8a1.8,1.8,0,0,1,1,.27.75.75,0,0,1,.42.6V67.9a.72.72,0,0,1-.42.61,1.88,1.88,0,0,1-1,.26h-8A1.88,1.88,0,0,1,64.83,68.51Z" style="fill:#5b68b0"/></svg>