<svg xmlns="http://www.w3.org/2000/svg" viewBox="0 0 396 113.78"><path d="M81.77,65.35a1,1,0,0,1-.3-.72V43.32a1,1,0,0,1,.3-.7,1,1,0,0,1,.72-.32H99.92a1,1,0,0,1,.7.32,1,1,0,0,1,.31.7v1.89a.93.93,0,0,0,.3.68,1,1,0,0,0,.72.3h1.85a1.08,1.08,0,0,1,1,1v1.88a1.08,1.08,0,0,1-1,1H102a1,1,0,0,0-.72.3,1,1,0,0,0-.3.69V53a1,1,0,0,0,.3.71A1,1,0,0,0,102,54h1.85a1,1,0,0,1,.7.3,1,1,0,0,1,.32.72v5.74a1,1,0,0,1-.32.72,1,1,0,0,1-.7.29H102a1,1,0,0,0-1,1v1.85a1,1,0,0,1-.31.72,1,1,0,0,1-.7.3H82.49A1,1,0,0,1,81.77,65.35ZM96,50.07a1.08,1.08,0,0,0,1-1V47.19a1.08,1.08,0,0,0-1-1H90.26a1.08,1.08,0,0,0-1,1v1.88a1.08,1.08,0,0,0,1,1Zm0,11.69a1,1,0,0,0,.7-.29,1,1,0,0,0,.32-.72V55a1,1,0,0,0-.32-.72A1,1,0,0,0,96,54H90.26a1,1,0,0,0-.7.3,1,1,0,0,0-.32.72v5.74a1,1,0,0,0,.32.72,1,1,0,0,0,.7.29Z" style="fill:#231f20"/><path d="M110.19,65.39a.83.83,0,0,1-.26-.61V43.18a.86.86,0,0,1,.26-.6.8.8,0,0,1,.61-.27h4.92a.83.83,0,0,1,.62.27.85.85,0,0,1,.25.6v21.6a.82.82,0,0,1-.25.61.85.85,0,0,1-.62.26H110.8A.83.83,0,0,1,110.19,65.39Z" style="fill:#231f20"/><path d="M126.25,65.39a.8.8,0,0,1-.27-.61V63.19a.85.85,0,0,0-.87-.87h-1.59a.89.89,0,0,1-.87-.87V49.84a.86.86,0,0,1,.26-.6.8.8,0,0,1,.61-.27h4.92a.83.83,0,0,1,.62.27.85.85,0,0,1,.25.6V61.45a.8.8,0,0,0,.27.61.86.86,0,0,0,.6.26h4.95a.86.86,0,0,0,.6-.26.8.8,0,0,0,.27-.61V49.84a.86.86,0,0,1,.26-.6.77.77,0,0,1,.58-.27h4.95a.93.93,0,0,1,.87.87V61.45a.8.8,0,0,1-.27.61.86.86,0,0,1-.6.26H140.2a.82.82,0,0,0-.61.25.85.85,0,0,0-.26.62v1.59a.8.8,0,0,1-.27.61.86.86,0,0,1-.6.26H126.85A.86.86,0,0,1,126.25,65.39Z" style="fill:#231f20"/><path d="M152.32,65.39a.8.8,0,0,1-.27-.61V63.19a.85.85,0,0,0-.87-.87h-1.59a.89.89,0,0,1-.87-.87V53.14a.84.84,0,0,1,.26-.59.82.82,0,0,1,.61-.25h1.59a.83.83,0,0,0,.62-.27.84.84,0,0,0,.25-.59V49.83a.81.81,0,0,1,.27-.59.83.83,0,0,1,.6-.27h11.61a.83.83,0,0,1,.6.27.81.81,0,0,1,.27.59v1.61a.86.86,0,0,0,.26.59.8.8,0,0,0,.61.27h1.59a.82.82,0,0,1,.6.26.77.77,0,0,1,.27.58v5a.93.93,0,0,1-.87.87H156.25a.85.85,0,0,0-.6.25.83.83,0,0,0-.27.62v1.59a.8.8,0,0,0,.27.61.86.86,0,0,0,.6.26h8.28a.85.85,0,0,1,.6.25.83.83,0,0,1,.27.62v1.59a.8.8,0,0,1-.27.61.86.86,0,0,1-.6.26H152.92A.86.86,0,0,1,152.32,65.39Zm8.88-9.73a.83.83,0,0,0,.6-.27.85.85,0,0,0,.27-.61V53.15a.78.78,0,0,0-.27-.59.82.82,0,0,0-.6-.26h-4.95a.82.82,0,0,0-.6.26.78.78,0,0,0-.27.59v1.63a.85.85,0,0,0,.27.61.83.83,0,0,0,.6.27Z" style="fill:#231f20"/><path d="M175.64,65.35a1,1,0,0,1-.29-.72V43.32a1,1,0,0,1,.29-.7,1,1,0,0,1,.72-.32h17.43a1.1,1.1,0,0,1,1,1v1.89a1,1,0,0,0,.29.68,1,1,0,0,0,.72.3h1.86a1,1,0,0,1,.7.31,1,1,0,0,1,.31.7V53a1,1,0,0,1-.31.7,1,1,0,0,1-.7.31l-1.86,0a1,1,0,0,0-.72.3,1,1,0,0,0-.29.72v1.85a1.1,1.1,0,0,1-1,1h-9.66a1,1,0,0,0-.7.3.92.92,0,0,0-.31.71v5.74a1,1,0,0,1-1,1h-5.74A1,1,0,0,1,175.64,65.35ZM189.91,54a1,1,0,0,0,.7-.31,1,1,0,0,0,.31-.7V47.2a1,1,0,0,0-.31-.7,1,1,0,0,0-.7-.31h-5.78a1,1,0,0,0-.7.31,1,1,0,0,0-.31.7V53a1,1,0,0,0,.31.7,1,1,0,0,0,.7.31Z" style="fill:#231f20"/><path d="M204.06,45.38a.82.82,0,0,1-.25-.61V43.18a.85.85,0,0,1,.25-.6.83.83,0,0,1,.62-.27h4.92a.8.8,0,0,1,.61.27.86.86,0,0,1,.26.6v1.59a.89.89,0,0,1-.87.87h-4.92A.85.85,0,0,1,204.06,45.38Zm0,20a.82.82,0,0,1-.25-.61V49.84a.85.85,0,0,1,.25-.6.83.83,0,0,1,.62-.27h4.92a.8.8,0,0,1,.61.27.86.86,0,0,1,.26.6V64.78a.89.89,0,0,1-.87.87h-4.92A.85.85,0,0,1,204.06,65.39Z" style="fill:#231f20"/><path d="M216.78,65.39a.82.82,0,0,1-.25-.61V63.19a.85.85,0,0,1,.87-.87H219a.89.89,0,0,0,.87-.87v-1.6a.89.89,0,0,1,.87-.87h1.59a.8.8,0,0,0,.61-.27.86.86,0,0,0,.26-.6v-1.6a.87.87,0,0,0-.26-.62.82.82,0,0,0-.61-.25h-1.59a.93.93,0,0,1-.87-.87V53.14a.84.84,0,0,0-.26-.59.82.82,0,0,0-.61-.25H217.4a.83.83,0,0,1-.62-.27.84.84,0,0,1-.25-.59V49.83a.89.89,0,0,1,.87-.86h8.28a.77.77,0,0,1,.58.27.86.86,0,0,1,.26.6v4.95a.93.93,0,0,0,.87.87H229a.93.93,0,0,0,.87-.87V49.84a.85.85,0,0,1,.25-.6.79.79,0,0,1,.59-.27h4.95a.83.83,0,0,1,.6.27.81.81,0,0,1,.27.59v1.61a.93.93,0,0,1-.87.86h-1.59a.84.84,0,0,0-.62.25.83.83,0,0,0-.25.59v1.63a.93.93,0,0,1-.87.87h-1.62a.81.81,0,0,0-.59.25.86.86,0,0,0-.25.62v1.6a.85.85,0,0,0,.25.6.79.79,0,0,0,.59.27h1.62a.89.89,0,0,1,.87.87v1.6a.82.82,0,0,0,.25.61.85.85,0,0,0,.62.26h1.59a.85.85,0,0,1,.6.25.83.83,0,0,1,.27.62v1.59a.8.8,0,0,1-.27.61.86.86,0,0,1-.6.26h-8.28a.86.86,0,0,1-.6-.26.8.8,0,0,1-.27-.61V59.86a.85.85,0,0,0-.26-.62.79.79,0,0,0-.58-.25h-1.62a.85.85,0,0,0-.6.25.83.83,0,0,0-.27.62v4.92a.89.89,0,0,1-.87.87H217.4A.85.85,0,0,1,216.78,65.39Z" style="fill:#231f20"/><path d="M246.2,65.39a.8.8,0,0,1-.27-.61V63.19a.85.85,0,0,0-.26-.62.82.82,0,0,0-.61-.25h-1.59a.85.85,0,0,1-.62-.26.82.82,0,0,1-.25-.61V53.14a.83.83,0,0,1,.25-.59.84.84,0,0,1,.62-.25h1.59a.8.8,0,0,0,.61-.27.86.86,0,0,0,.26-.59V49.83a.81.81,0,0,1,.27-.59.83.83,0,0,1,.6-.27h11.61a.83.83,0,0,1,.6.27.81.81,0,0,1,.27.59v1.61a.84.84,0,0,0,.25.59.83.83,0,0,0,.62.27h1.59a.82.82,0,0,1,.6.26.77.77,0,0,1,.27.58v5a.93.93,0,0,1-.87.87H250.13a.85.85,0,0,0-.6.25.83.83,0,0,0-.27.62v1.59a.8.8,0,0,0,.27.61.86.86,0,0,0,.6.26h8.28a.85.85,0,0,1,.6.25.83.83,0,0,1,.27.62v1.59a.8.8,0,0,1-.27.61.86.86,0,0,1-.6.26H246.8A.86.86,0,0,1,246.2,65.39Zm8.88-9.73a.83.83,0,0,0,.6-.27.85.85,0,0,0,.27-.61V53.15a.78.78,0,0,0-.27-.59.82.82,0,0,0-.6-.26h-5a.82.82,0,0,0-.6.26.78.78,0,0,0-.27.59v1.63a.85.85,0,0,0,.27.61.83.83,0,0,0,.6.27Z" style="fill:#231f20"/><path d="M268.92,65.39a.82.82,0,0,1-.25-.61V43.18a.85.85,0,0,1,.25-.6.83.83,0,0,1,.62-.27h4.92a.8.8,0,0,1,.61.27.86.86,0,0,1,.26.6v21.6a.89.89,0,0,1-.87.87h-4.92A.85.85,0,0,1,268.92,65.39Z" style="fill:#231f20"/><path d="M281.64,65.39a.82.82,0,0,1-.25-.61V59.86a.85.85,0,0,1,.87-.87h4.92a.82.82,0,0,1,.61.25.85.85,0,0,1,.26.62v4.92a.89.89,0,0,1-.87.87h-4.92A.85.85,0,0,1,281.64,65.39Z" style="fill:#231f20"/><path d="M297.7,65.39a.83.83,0,0,1-.26-.61V63.19a.85.85,0,0,0-.26-.62.82.82,0,0,0-.61-.25H295a.84.84,0,0,1-.62-.26.82.82,0,0,1-.25-.61V53.14a.85.85,0,0,1,.87-.84h1.59a.8.8,0,0,0,.61-.27.86.86,0,0,0,.26-.59V49.83a.84.84,0,0,1,.26-.59.85.85,0,0,1,.61-.27h8.27a.87.87,0,0,0,.61-.26.8.8,0,0,0,.26-.58v-5a.86.86,0,0,1,.26-.6.77.77,0,0,1,.58-.27h4.95a.87.87,0,0,1,.61.27.82.82,0,0,1,.26.6v21.6a.8.8,0,0,1-.26.61.9.9,0,0,1-.61.26H298.31A.88.88,0,0,1,297.7,65.39Zm8.88-3.07a.87.87,0,0,0,.61-.26.83.83,0,0,0,.26-.61V53.14a.84.84,0,0,0-.26-.59.85.85,0,0,0-.61-.25h-4.94a.87.87,0,0,0-.61.25.84.84,0,0,0-.26.59v8.31a.83.83,0,0,0,.26.61.88.88,0,0,0,.61.26Z" style="fill:#231f20"/><path d="M323.78,65.39a.8.8,0,0,1-.27-.61V63.19a.85.85,0,0,0-.26-.62.82.82,0,0,0-.61-.25h-1.59a.85.85,0,0,1-.62-.26.82.82,0,0,1-.25-.61V53.14a.83.83,0,0,1,.25-.59.84.84,0,0,1,.62-.25h1.59a.8.8,0,0,0,.61-.27.86.86,0,0,0,.26-.59V49.83a.93.93,0,0,1,.87-.86H336a.87.87,0,0,1,.61.27.81.81,0,0,1,.27.59v1.61a.84.84,0,0,0,.25.59.81.81,0,0,0,.62.27h1.59a.85.85,0,0,1,.6.26.77.77,0,0,1,.27.58v5a.83.83,0,0,1-.27.6.87.87,0,0,1-.6.27H327.71a.89.89,0,0,0-.87.87v1.59a.8.8,0,0,0,.27.61.84.84,0,0,0,.6.26H336a.89.89,0,0,1,.61.25.83.83,0,0,1,.27.62v1.59a.8.8,0,0,1-.27.61.9.9,0,0,1-.61.26h-11.6A.84.84,0,0,1,323.78,65.39Zm8.87-9.73a.84.84,0,0,0,.61-.27.85.85,0,0,0,.27-.61V53.15a.78.78,0,0,0-.27-.59.83.83,0,0,0-.61-.26h-4.94a.8.8,0,0,0-.6.26.78.78,0,0,0-.27.59v1.63a.85.85,0,0,0,.27.61.82.82,0,0,0,.6.27Z" style="fill:#231f20"/><path d="M349.87,65.39a.81.81,0,0,1-.28-.61V59.86a.85.85,0,0,0-.87-.87h-1.6a.83.83,0,0,1-.62-.27.86.86,0,0,1-.26-.6v-5a.79.79,0,0,0-.25-.58.82.82,0,0,0-.62-.26h-1.59a.8.8,0,0,1-.61-.27.86.86,0,0,1-.26-.59V49.83a.84.84,0,0,1,.26-.59.8.8,0,0,1,.61-.27H352a.81.81,0,0,1,.62.27.85.85,0,0,1,.25.6v8.28a.84.84,0,0,0,.28.6.85.85,0,0,0,.61.27h1.65a.79.79,0,0,0,.59-.27.82.82,0,0,0,.26-.6V49.84a.93.93,0,0,1,.87-.87h4.93a.91.91,0,0,1,.86.86v1.61a.86.86,0,0,1-.26.59.83.83,0,0,1-.6.27h-1.61a.87.87,0,0,0-.84.84v5a.93.93,0,0,1-.87.87h-1.61a.85.85,0,0,0-.6.25.83.83,0,0,0-.27.62v4.92a.87.87,0,0,1-.84.87h-5A.86.86,0,0,1,349.87,65.39Z" style="fill:#231f20"/><path d="M33.46,65.41a.72.72,0,0,1-.41-.62V43.15a.73.73,0,0,1,.41-.6,1.8,1.8,0,0,1,1-.27h8a1.8,1.8,0,0,1,1,.27.75.75,0,0,1,.42.6V64.79a.73.73,0,0,1-.42.62,1.88,1.88,0,0,1-1,.26h-8A1.88,1.88,0,0,1,33.46,65.41Z"/><path d="M49.15,65.41a.73.73,0,0,1-.42-.62V43.15a.75.75,0,0,1,.42-.6,1.78,1.78,0,0,1,1-.27h8a1.81,1.81,0,0,1,1,.27.75.75,0,0,1,.41.6V64.79a.74.74,0,0,1-.41.62,1.9,1.9,0,0,1-1,.26h-8A1.86,1.86,0,0,1,49.15,65.41Z"/><path d="M64.83,65.41a.73.73,0,0,1-.42-.62V43.15a.75.75,0,0,1,.42-.6,1.8,1.8,0,0,1,1-.27h8a1.8,1.8,0,0,1,1,.27.75.75,0,0,1,.42.6V64.79a.73.73,0,0,1-.42.62,1.88,1.88,0,0,1-1,.26h-8A1.88,1.88,0,0,1,64.83,65.41Z" style="fill:#3b4398"/></svg>