<?xml version="1.0" standalone="no"?>
<!DOCTYPE svg PUBLIC "-//W3C//DTD SVG 20010904//EN"
 "http://www.w3.org/TR/2001/REC-SVG-20010904/DTD/svg10.dtd">
<svg version="1.0" xmlns="http://www.w3.org/2000/svg"
 width="912.000000pt" height="912.000000pt" viewBox="0 0 912.000000 912.000000"
 preserveAspectRatio="xMidYMid meet">
<metadata>
Created by potrace 1.14, written by Peter Selinger 2001-2017
</metadata>
<g transform="translate(0.000000,912.000000) scale(0.100000,-0.100000)"
fill="#000000" stroke="none">
<path d="M1462 6335 c-64 -20 -110 -59 -122 -104 -7 -27 -9 -569 -8 -1694 3
-1652 3 -1656 24 -1684 11 -15 42 -39 70 -53 l49 -25 690 0 c758 0 738 -2 801
61 l34 35 0 1680 c0 1432 -2 1684 -14 1707 -8 16 -38 41 -68 57 l-53 30 -680
2 c-548 2 -688 -1 -723 -12z"/>
<path d="M3862 6335 c-62 -19 -110 -59 -122 -103 -8 -26 -10 -532 -8 -1699 l3
-1661 25 -27 c14 -15 43 -37 65 -48 40 -22 43 -22 740 -22 697 0 700 0 740 22
22 11 51 33 65 48 l25 27 0 1683 0 1684 -21 28 c-12 15 -43 39 -70 53 l-48 25
-676 2 c-543 2 -683 -1 -718 -12z"/>
<path d="M6277 6339 c-54 -13 -91 -34 -121 -69 l-26 -32 0 -1674 c0 -1900 -9
-1717 88 -1762 l57 -27 685 0 685 0 57 27 c97 45 88 -138 88 1762 l0 1674 -27
33 c-15 18 -48 41 -73 53 -44 21 -58 21 -710 23 -370 1 -682 -3 -703 -8z"/>
</g>
</svg>
